<svg width="13" height="11" viewBox="0 0 13 11" fill="none" xmlns="http://www.w3.org/2000/svg">
<g clip-path="url(#clip0_20_182)">
<path d="M4.74848 10.2871C4.36496 10.2871 4.00172 10.1408 3.76897 9.88864L0.618846 6.48739C0.521454 6.38235 0.450351 6.26265 0.409603 6.13514C0.368854 6.00763 0.35926 5.87481 0.381368 5.74427C0.403475 5.61373 0.456851 5.48803 0.538445 5.37435C0.620038 5.26068 0.728249 5.16126 0.856891 5.08178C0.985486 5.00198 1.13209 4.94369 1.2883 4.91027C1.44452 4.87684 1.60727 4.86894 1.76722 4.88701C1.92718 4.90508 2.0812 4.94877 2.22046 5.01557C2.35972 5.08238 2.48147 5.17098 2.57875 5.27631L4.65149 7.51259L9.8629 0.674056C10.0357 0.448266 10.3111 0.287711 10.6286 0.227609C10.9461 0.167507 11.2798 0.212765 11.5565 0.353455C12.1323 0.645959 12.3095 1.26555 11.9498 1.73672L5.79234 9.813C5.68723 9.95148 5.54235 10.0669 5.37028 10.1493C5.1982 10.2316 5.00413 10.2784 4.8049 10.2856C4.7855 10.2871 4.76787 10.2871 4.74848 10.2871Z" fill="#181059"/>
</g>
<defs>
<clipPath id="clip0_20_182">
<rect width="12.5059" height="10.4888" fill="white"/>
</clipPath>
</defs>
</svg>
